HIERARCHY
ROOT Hips
{
	OFFSET 0.00000 0.00000 0.00000
	CHANNELS 6 Xposition Yposition Zposition Zrotation Yrotation Xrotation 
	JOINT LHipJoint
	{
		OFFSET 0 0 0
		CHANNELS 3 Zrotation Yrotation Xrotation
		JOINT LeftUpLeg
		{
			OFFSET 1.28858 -1.83292 1.03970
			CHANNELS 3 Zrotation Yrotation Xrotation
			JOINT LeftLeg
			{
				OFFSET 2.47846 -6.80952 0.00000
				CHANNELS 3 Zrotation Yrotation Xrotation
				JOINT LeftFoot
				{
					OFFSET 2.75274 -7.56311 0.00000
					CHANNELS 3 Zrotation Yrotation Xrotation
					JOINT LeftToeBase
					{
						OFFSET 0.12848 -0.35301 1.68223
						CHANNELS 3 Zrotation Yrotation Xrotation
						End Site
						{
							OFFSET 0.00000 -0.00000 0.87311
						}
					}
				}
			}
		}
	}
	JOINT RHipJoint
	{
		OFFSET 0 0 0
		CHANNELS 3 Zrotation Yrotation Xrotation
		JOINT RightUpLeg
		{
			OFFSET -1.31183 -1.83292 1.03970
			CHANNELS 3 Zrotation Yrotation Xrotation
			JOINT RightLeg
			{
				OFFSET -2.44740 -6.72417 0.00000
				CHANNELS 3 Zrotation Yrotation Xrotation
				JOINT RightFoot
				{
					OFFSET -2.67343 -7.34519 0.00000
					CHANNELS 3 Zrotation Yrotation Xrotation
					JOINT RightToeBase
					{
						OFFSET -0.16914 -0.46471 1.77626
						CHANNELS 3 Zrotation Yrotation Xrotation
						End Site
						{
							OFFSET -0.00000 -0.00000 0.92777
						}
					}
				}
			}
		}
	}
	JOINT LowerBack
	{
		OFFSET 0 0 0
		CHANNELS 3 Zrotation Yrotation Xrotation
		JOINT Spine
		{
			OFFSET 0.01249 2.14252 0.03842
			CHANNELS 3 Zrotation Yrotation Xrotation
			JOINT Spine1
			{
				OFFSET -0.02957 2.14199 -0.03751
				CHANNELS 3 Zrotation Yrotation Xrotation
				JOINT Neck
				{
					OFFSET 0 0 0
					CHANNELS 3 Zrotation Yrotation Xrotation
					JOINT Neck1
					{
						OFFSET -0.01678 1.65709 -0.05476
						CHANNELS 3 Zrotation Yrotation Xrotation
						JOINT Head
						{
							OFFSET 0.07912 1.58331 -0.11843
							CHANNELS 3 Zrotation Yrotation Xrotation
							End Site
							{
								OFFSET 0.03298 1.73940 -0.04271
							}
						}
					}
				}
				JOINT LeftShoulder
				{
					OFFSET 0 0 0
					CHANNELS 3 Zrotation Yrotation Xrotation
					JOINT LeftArm
					{
						OFFSET 3.39556 1.16496 0.08673
						CHANNELS 3 Zrotation Yrotation Xrotation
						JOINT LeftForeArm
						{
							OFFSET 5.23910 -0.00000 -0.00000
							CHANNELS 3 Zrotation Yrotation Xrotation
							JOINT LeftHand
							{
								OFFSET 3.31467 -0.00000 0.00000
								CHANNELS 3 Zrotation Yrotation Xrotation
								JOINT LeftFingerBase
								{
									OFFSET 0 0 0
									CHANNELS 3 Zrotation Yrotation Xrotation
									JOINT LeftHandIndex1
									{
										OFFSET 0.96590 -0.00000 0.00000
										CHANNELS 3 Zrotation Yrotation Xrotation
										End Site
										{
											OFFSET 0.77873 -0.00000 0.00000
										}
									}
								}
								JOINT LThumb
								{
									OFFSET 0 0 0
									CHANNELS 3 Zrotation Yrotation Xrotation
									End Site
									{
										OFFSET 0.79062 -0.00000 0.79062
									}
								}
							}
						}
					}
				}
				JOINT RightShoulder
				{
					OFFSET 0 0 0
					CHANNELS 3 Zrotation Yrotation Xrotation
					JOINT RightArm
					{
						OFFSET -3.27193 1.31331 0.33940
						CHANNELS 3 Zrotation Yrotation Xrotation
						JOINT RightForeArm
						{
							OFFSET -5.30252 -0.00000 0.00000
							CHANNELS 3 Zrotation Yrotation Xrotation
							JOINT RightHand
							{
								OFFSET -3.67875 -0.00000 0.00000
								CHANNELS 3 Zrotation Yrotation Xrotation
								JOINT RightFingerBase
								{
									OFFSET 0 0 0
									CHANNELS 3 Zrotation Yrotation Xrotation
									JOINT RightHandIndex1
									{
										OFFSET -0.59481 -0.00000 0.00000
										CHANNELS 3 Zrotation Yrotation Xrotation
										End Site
										{
											OFFSET -0.47955 -0.00000 0.00000
										}
									}
								}
								JOINT RThumb
								{
									OFFSET 0 0 0
									CHANNELS 3 Zrotation Yrotation Xrotation
									End Site
									{
										OFFSET -0.48687 -0.00000 0.48687
									}
								}
							}
						}
					}
				}
			}
		}
	}
}
MOTION
Frames: 9
Frame Time: .0083333
7.7934 16.1596 42.3348 0 0 0 0 0 0 -21 0 0 0 0 0 0 0 0 0 0 0 0 0 0 21 0 0 0 0 0 0 0 0 0 0 0 0 0 0 0 0 0 0 0 0 0 0 -16 0 0 21 0 0 11 0 0 0 -8 0 0 0 0 0 0 0 0 0 0 0 0 0 0 0 0 0 0 0 0 8 0 0 0 0 0 0 0 0 0 0 0 0 0 0 0 0 0
7.7934 16.1596 42.3348 -173.0530 19.4772 -152.3250 0.0000 0.0000 0.0000 -4.9831 -4.3737 -73.5522 4.2340 12.4655 37.3992 -0.0010 -1.8714 -1.2148 8.0586 16.1622 52.7734 0.0000 0.0000 0.0000 27.1447 11.8040 -27.1153 -5.6257 -14.0555 43.4604 11.4509 -52.2610 -3.6180 -12.5539 18.6151 -67.7342 -6.4191 3.0784 18.6163 -1.3490 4.9603 11.2200 1.3493 2.9480 1.4169 -8.7110 -8.4190 7.5868 -2.3505 -11.8715 -5.8360 1.2161 -5.3191 -2.8070 0.0000 -0.0000 0.0000 43.0710 -36.6555 -55.0115 18.5832 -28.8975 -4.8278 -0.0000 0.0000 -60.9745 26.2543 0.4202 0.2073 -7.1250 0.0000 -0.0000 -0.2468 30.4483 0.0877 0.0000 -0.0000 0.0000 -92.2699 47.6397 -142.7878 -8.4841 14.3345 -1.0688 0.0000 0.0000 16.1404 -15.1121 -37.2406 9.2814 7.1250 -0.0000 -0.0000 25.5642 -66.5113 -13.6328
7.8843 16.0125 41.3660 -171.5920 16.8591 -148.0280 0.0000 0.0000 0.0000 -3.1992 -5.5329 -80.0341 6.2543 14.6704 45.9941 -0.0200 4.6194 2.4493 4.9396 13.3154 40.5610 0.0000 0.0000 0.0000 28.5305 11.9607 -25.4588 -4.9275 -13.3017 40.5084 9.5099 -46.0485 -20.3669 -9.7264 17.2531 -58.5698 -4.9258 0.6249 20.6763 -2.5160 1.9591 11.3525 -0.2601 1.6179 0.7884 -8.6112 -9.1159 8.1535 -1.8444 -12.8760 -6.5885 1.4544 -5.7901 -3.1077 -0.0000 0.0000 0.0000 40.6298 -30.8110 -44.7368 22.9622 -34.0474 -7.1171 -0.0000 0.0000 -79.0163 35.8304 -7.1746 -5.1528 -7.1250 0.0000 -0.0000 6.5369 21.1784 -3.7579 -0.0000 0.0000 0.0000 -95.6571 45.5404 -152.2908 -7.8481 13.3063 -0.9169 0.0000 0.0000 21.2603 -13.8914 -35.0966 8.0930 7.1250 -0.0000 -0.0000 24.4245 -64.2742 -11.7384
7.9589 15.9321 40.3448 -170.2010 15.2974 -144.5430 0.0000 0.0000 0.0000 -0.3248 -6.1467 -84.1011 8.0327 16.1433 52.6805 -0.0456 -4.0095 0.0571 4.5351 12.8403 38.7734 0.0000 0.0000 0.0000 29.5201 9.1596 -21.8223 -3.4218 -11.3485 33.4643 13.0242 -52.4173 -12.7895 -12.9671 18.7703 -69.0234 -6.3613 1.1002 23.2000 -2.0924 2.0069 10.6277 0.8757 1.5881 -1.2776 -8.6129 -9.6779 8.3050 -1.2690 -13.6360 -7.1612 1.6937 -6.1516 -3.2630 0.0000 0.0000 0.0000 43.4289 -35.3021 -53.1839 21.5262 -32.4374 -6.3298 -0.0000 0.0000 -70.1690 33.1950 -5.2384 -3.4184 -7.1250 0.0000 -0.0000 4.8249 23.7311 -2.4836 0.0000 0.0000 0.0000 -93.9291 47.0755 -152.2262 -8.1067 13.7257 -0.9773 0.0000 0.0000 22.4414 -12.8050 -35.7988 7.5730 7.1250 -0.0000 -0.0000 26.3858 -64.5977 -12.9405
8.0126 15.8635 39.2602 -168.0960 14.5756 -142.4920 0.0000 0.0000 0.0000 2.1998 -5.6677 -84.8786 8.9373 16.7672 55.8731 -0.1888 -7.9290 0.7908 8.3969 16.4036 53.9801 0.0000 0.0000 0.0000 29.8105 1.5401 -17.1089 -1.9757 -8.8154 25.2195 4.9800 -35.9719 -17.6293 -0.0613 -1.5978 4.3955 -7.4406 1.7639 26.8779 -1.9858 2.4883 10.7107 1.3291 1.8900 -2.9787 -10.4751 -10.1773 4.0970 -0.1640 -13.7506 -5.9107 1.9738 -6.2760 -1.8576 -0.0000 0.0000 0.0000 47.2361 -36.3942 -55.4953 20.3049 -31.0080 -5.6876 -0.0000 0.0000 -68.3361 33.4357 -5.8149 -3.8272 -7.1250 0.0000 -0.0000 4.9493 23.0287 -2.6283 -0.0000 0.0000 0.0000 -92.5525 47.3135 -154.2764 -7.9879 13.5333 -0.9493 0.0000 0.0000 24.0618 -12.9545 -34.8059 7.4803 7.1250 -0.0000 -0.0000 25.1347 -63.7641 -11.8024
8.0386 15.9667 38.0908 -165.1210 14.1238 -136.8910 0.0000 0.0000 0.0000 5.6785 -4.5355 -86.2149 9.1840 16.9247 56.7242 -0.1387 -8.6613 -2.8331 7.8982 16.0439 52.1953 0.0000 0.0000 0.0000 28.8829 -1.9702 -15.2345 -1.1996 -6.9494 19.5654 1.4916 -24.9391 5.1803 -6.9797 -15.3148 48.7974 -8.2184 2.6389 28.4903 -2.0861 3.0589 10.0512 1.3836 2.1431 -4.5302 -10.3571 -10.3473 2.7857 0.9394 -13.7936 -5.8515 2.2082 -6.3595 -1.5339 -0.0000 0.0000 0.0000 48.8554 -36.0045 -55.6454 20.5651 -31.3172 -5.8222 -0.0000 0.0000 -67.5954 34.6583 -7.0568 -4.8548 -7.1250 0.0000 -0.0000 5.7102 21.4384 -3.2439 -0.0000 0.0000 0.0000 -91.4188 47.0496 -157.5611 -7.9152 13.4154 -0.9324 0.0000 0.0000 26.3808 -13.8827 -33.7773 7.8240 7.1250 -0.0000 -0.0000 23.0834 -63.0874 -10.4199
8.0714 15.9974 36.8700 -159.3060 10.1305 -127.5190 0.0000 0.0000 0.0000 13.8655 -1.6492 -90.7473 9.4079 17.0631 57.4903 -0.0116 -8.7816 -5.9325 7.8647 16.0188 52.0738 0.0000 0.0000 0.0000 32.9082 -9.4638 -17.5111 -0.5078 -4.5680 12.6803 -0.6083 1.0064 15.1320 -7.0908 -15.4078 49.2167 -4.5880 2.5804 25.1292 -1.4387 3.7516 9.3567 -0.0130 2.3600 -3.7093 -9.9498 -10.0105 1.7640 2.2780 -13.2375 -5.7485 2.5031 -6.1789 -1.2876 -0.0000 -0.0000 0.0000 48.7002 -34.2891 -54.3631 22.1470 -33.1427 -6.6660 -0.0000 0.0000 -68.4374 36.6397 -8.4475 -6.2353 -7.1250 0.0000 -0.0000 6.9510 19.5337 -4.2580 -0.0000 -0.0000 0.0000 -88.6586 47.1489 -152.8072 -8.5527 14.4448 -1.0858 0.0000 0.0000 20.7486 -12.5418 -47.3974 9.2994 7.1250 -0.0000 -0.0000 47.8887 -73.3693 -34.1197
8.0758 16.0434 35.6388 -154.6240 6.7035 -117.9760 0.0000 0.0000 0.0000 20.6605 1.9797 -94.5609 9.5798 17.1667 58.0744 0.4116 1.8083 -12.9134 3.4648 11.4119 33.6821 0.0000 0.0000 0.0000 37.9549 -16.1396 -23.7976 -0.4242 -4.1800 11.5836 -7.9405 9.1011 56.5371 -0.8028 -5.7186 15.9702 -2.2626 3.1719 20.8469 -1.2089 4.8079 8.4077 -1.1028 2.7684 -2.5497 -9.9718 -9.3924 0.5853 3.9527 -12.3078 -5.5564 2.9844 -5.8067 -0.9676 0.0000 0.0000 0.0000 49.8800 -34.5460 -56.0789 22.6376 -33.6902 -6.9362 -0.0000 0.0000 -68.4799 37.4954 -10.0221 -7.6048 -7.1250 0.0000 -0.0000 7.3291 17.4850 -4.8282 0.0000 0.0000 0.0000 -87.8423 45.5073 -158.4987 -7.5987 12.9003 -0.8603 0.0000 0.0000 26.2408 -16.9474 -34.8448 9.8766 7.1250 -0.0000 -0.0000 20.7556 -64.8834 -10.1876
8.0457 16.0955 34.4158 -150.5490 3.6291 -109.5320 0.0000 0.0000 0.0000 26.1096 5.7376 -96.6403 9.7933 17.2920 58.7953 -1.1520 18.9641 -11.2371 3.0946 10.8467 31.7645 0.0000 0.0000 0.0000 150.7594 63.0457 157.5949 -1.3867 7.4508 -21.0578 -19.7973 8.1956 -89.4199 -8.6652 -16.5874 54.9249 -0.7329 4.0236 17.2748 -1.1335 5.9652 7.3243 -1.8771 3.2581 -1.7565 -10.0061 -8.5686 -0.7292 5.4865 -11.0916 -5.4207 3.4512 -5.2649 -0.6868 0.0000 -0.0000 0.0000 49.8889 -34.9789 -56.7830 22.6106 -33.6603 -6.9213 -0.0000 0.0000 -67.6524 37.1216 -10.6297 -7.9480 -7.1250 0.0000 -0.0000 6.9856 16.7968 -4.7043 0.0000 -0.0000 0.0000 -87.4513 45.7173 -159.3246 -7.2593 12.3453 -0.7861 0.0000 0.0000 28.2770 -11.6388 -39.8431 7.5177 7.1250 -0.0000 -0.0000 33.0184 -67.6602 -18.7871
